<!-- Generated by IcoMoon.io -->
<svg version="1.1" xmlns="http://www.w3.org/2000/svg" width="75" height="75" viewBox="0 0 75 75">
<title>mail-envelope-closed</title>
<rect fill="#bc2e3a" x="0" y="0" width="75" height="75"></rect>
<path d="M12.457 21.736l18.129 15.764-18.133 15.768c-0.455-0.431-0.734-1.043-0.734-1.722v-28.093c0-0.678 0.284-1.288 0.738-1.718zM64.891 21.732c0.455 0.431 0.734 1.043 0.734 1.722v28.093c0 0.678-0.284 1.288-0.738 1.718l-18.129-15.764 18.133-15.768zM45.004 39.025l17.105 14.881h-46.875l17.105-14.881 6.332 5.506 6.332-5.506zM14.071 18.75c-2.594 0-4.696 2.096-4.696 4.674v28.153c0 2.581 2.085 4.674 4.696 4.674h49.202c2.594 0 4.696-2.096 4.696-4.674v-28.153c0-2.581-2.085-4.674-4.696-4.674h-49.202zM38.672 41.484l-23.438-20.391h46.875l-23.438 20.391z"></path>
</svg>
