<!-- Generated by IcoMoon.io -->
<svg version="1.1" xmlns="http://www.w3.org/2000/svg" width="75" height="75" viewBox="0 0 75 75">
<title>phone-call</title>
<rect fill="#bc2e3a" x="0" y="0" width="75" height="75"></rect>
<path d="M63.75 43.438c-2.813-0.313-5.625-0.938-8.125-1.875-3.437-1.25-7.187-0.313-10 2.188l-2.188 2.188c-5.625-3.75-10.625-8.438-14.375-14.375l2.188-2.188c2.5-2.5 3.437-6.563 2.188-10-0.938-2.5-1.562-5.312-1.875-8.125-0.625-4.688-4.688-8.125-9.375-8.125 0 0 0 0 0 0h-9.375c-0.313 0-0.625 0-0.938 0-2.5 0.313-4.688 1.562-6.25 3.437s-2.188 4.375-2.188 6.875c0.938 10 4.688 20 10 28.438 5 7.813 11.875 14.687 19.688 19.687 8.438 5.625 18.437 9.062 28.438 10 0.313 0 0.625 0 0.937 0 0 0 0 0 0 0 2.5 0 5-0.938 6.563-2.813s2.813-4.063 2.813-6.563v-9.375c0-4.688-3.437-8.75-8.125-9.375zM65.625 52.813v9.375c0 0.937-0.313 1.562-0.938 2.188s-1.25 0.937-2.5 0.937c-9.062-0.937-17.813-4.063-25.625-9.062-7.187-4.375-13.125-10.625-17.813-17.813-5-7.813-8.125-16.562-9.062-25.625 0-0.938 0.313-1.562 0.625-2.188 0.625-0.625 1.562-1.25 2.5-1.25h9.375c0 0 0 0 0 0 1.562 0 2.813 1.25 3.125 2.813 0.313 3.125 1.25 6.562 2.5 9.375 0.313 1.25 0 2.5-0.625 3.437l-4.063 3.75c-0.938 0.938-1.25 2.5-0.625 3.75 4.688 8.438 11.563 15.313 20 20 1.25 0.625 2.813 0.625 3.75-0.625l4.063-4.063c0.938-0.938 2.188-1.25 3.437-0.625 3.125 1.25 6.25 1.875 9.375 2.5 1.25 0.313 2.5 1.562 2.5 3.125 0 0 0 0 0 0z"></path>
<path d="M47.5 0c-1.562-0.313-3.125 0.938-3.437 2.813-0.313 1.562 0.938 3.125 2.813 3.437 11.563 1.25 20.625 10.313 22.187 22.187 0.313 1.562 1.562 2.813 3.125 2.813 0 0 0.313 0 0.313 0 1.562-0.313 2.813-1.875 2.813-3.437-1.875-14.687-13.438-26.25-27.812-27.812z"></path>
<path d="M56.25 28.438c0.313 1.562 1.562 2.5 3.125 2.5 0.313 0 0.313 0 0.625 0 1.562-0.313 2.813-1.875 2.5-3.75-1.562-7.5-7.187-13.438-14.687-14.687-1.562-0.313-3.437 0.625-3.75 2.5s0.625 3.437 2.5 3.75c5 0.938 8.75 4.688 9.688 9.688z"></path>
</svg>
