<svg aria-hidden="true" style="position: absolute; width: 0; height: 0; overflow: hidden;" version="1.1" xmlns="http://www.w3.org/2000/svg" xmlns:xlink="http://www.w3.org/1999/xlink">
<defs>
<symbol id="icon-phone-call" viewBox="0 0 75 75">
<title>phone-call</title>
<path d="M63.75 43.438c-2.813-0.313-5.625-0.938-8.125-1.875-3.437-1.25-7.187-0.313-10 2.188l-2.188 2.188c-5.625-3.75-10.625-8.438-14.375-14.375l2.188-2.188c2.5-2.5 3.437-6.563 2.188-10-0.938-2.5-1.562-5.312-1.875-8.125-0.625-4.688-4.688-8.125-9.375-8.125 0 0 0 0 0 0h-9.375c-0.313 0-0.625 0-0.938 0-2.5 0.313-4.688 1.562-6.25 3.437s-2.188 4.375-2.188 6.875c0.938 10 4.688 20 10 28.438 5 7.813 11.875 14.687 19.688 19.687 8.438 5.625 18.437 9.062 28.438 10 0.313 0 0.625 0 0.937 0 0 0 0 0 0 0 2.5 0 5-0.938 6.563-2.813s2.813-4.063 2.813-6.563v-9.375c0-4.688-3.437-8.75-8.125-9.375zM65.625 52.813v9.375c0 0.937-0.313 1.562-0.938 2.188s-1.25 0.937-2.5 0.937c-9.062-0.937-17.813-4.063-25.625-9.062-7.187-4.375-13.125-10.625-17.813-17.813-5-7.813-8.125-16.562-9.062-25.625 0-0.938 0.313-1.562 0.625-2.188 0.625-0.625 1.562-1.25 2.5-1.25h9.375c0 0 0 0 0 0 1.562 0 2.813 1.25 3.125 2.813 0.313 3.125 1.25 6.562 2.5 9.375 0.313 1.25 0 2.5-0.625 3.437l-4.063 3.75c-0.938 0.938-1.25 2.5-0.625 3.75 4.688 8.438 11.563 15.313 20 20 1.25 0.625 2.813 0.625 3.75-0.625l4.063-4.063c0.938-0.938 2.188-1.25 3.437-0.625 3.125 1.25 6.25 1.875 9.375 2.5 1.25 0.313 2.5 1.562 2.5 3.125 0 0 0 0 0 0z"></path>
<path d="M47.5 0c-1.562-0.313-3.125 0.938-3.437 2.813-0.313 1.562 0.938 3.125 2.813 3.437 11.563 1.25 20.625 10.313 22.187 22.187 0.313 1.562 1.562 2.813 3.125 2.813 0 0 0.313 0 0.313 0 1.562-0.313 2.813-1.875 2.813-3.437-1.875-14.687-13.438-26.25-27.812-27.812z"></path>
<path d="M56.25 28.438c0.313 1.562 1.562 2.5 3.125 2.5 0.313 0 0.313 0 0.625 0 1.562-0.313 2.813-1.875 2.5-3.75-1.562-7.5-7.187-13.438-14.687-14.687-1.562-0.313-3.437 0.625-3.75 2.5s0.625 3.437 2.5 3.75c5 0.938 8.75 4.688 9.688 9.688z"></path>
</symbol>
<symbol id="icon-mail-envelope-closed" viewBox="0 0 75 75">
<title>mail-envelope-closed</title>
<path d="M12.457 21.736l18.129 15.764-18.133 15.768c-0.455-0.431-0.734-1.043-0.734-1.722v-28.093c0-0.678 0.284-1.288 0.738-1.718zM64.891 21.732c0.455 0.431 0.734 1.043 0.734 1.722v28.093c0 0.678-0.284 1.288-0.738 1.718l-18.129-15.764 18.133-15.768zM45.004 39.025l17.105 14.881h-46.875l17.105-14.881 6.332 5.506 6.332-5.506zM14.071 18.75c-2.594 0-4.696 2.096-4.696 4.674v28.153c0 2.581 2.085 4.674 4.696 4.674h49.202c2.594 0 4.696-2.096 4.696-4.674v-28.153c0-2.581-2.085-4.674-4.696-4.674h-49.202zM38.672 41.484l-23.438-20.391h46.875l-23.438 20.391z"></path>
</symbol>
<symbol id="icon-magnifying-glass" viewBox="0 0 75 75">
<title>magnifying-glass</title>
<path d="M24.609 0c-13.57 0-24.609 11.039-24.609 24.609s11.039 24.609 24.609 24.609c6.387 0 12.195-2.466 16.573-6.469 0.052 0.091 0.098 0.187 0.178 0.267l5.041 5.041c-0.422 0.712-0.661 1.519-0.661 2.37 0 1.252 0.487 2.428 1.373 3.314l19.887 19.887c0.884 0.884 2.060 1.371 3.312 1.371s2.428-0.487 3.314-1.373 1.373-2.063 1.373-3.314-0.487-2.428-1.373-3.314l-19.887-19.887c-1.486-1.486-3.888-1.709-5.672-0.701l-5.051-5.051c-0.080-0.080-0.173-0.127-0.267-0.178 4.003-4.378 6.469-10.186 6.469-16.573 0-13.57-11.039-24.609-24.609-24.609zM52.083 48.769l19.887 19.887c0.443 0.443 0.687 1.031 0.687 1.657s-0.244 1.214-0.687 1.657c-0.888 0.884-2.426 0.884-3.314 0l-19.887-19.887c-0.441-0.443-0.687-1.031-0.687-1.657s0.244-1.214 0.687-1.657c0.443-0.441 1.031-0.687 1.657-0.687s1.212 0.244 1.657 0.687zM24.609 46.875c-12.277 0-22.266-9.989-22.266-22.266s9.989-22.266 22.266-22.266 22.266 9.989 22.266 22.266-9.989 22.266-22.266 22.266zM24.609 7.031c-9.694 0-17.578 7.884-17.578 17.578s7.884 17.578 17.578 17.578 17.578-7.884 17.578-17.578-7.884-17.578-17.578-17.578zM24.609 39.844c-8.4 0-15.234-6.834-15.234-15.234s6.834-15.234 15.234-15.234 15.234 6.834 15.234 15.234-6.834 15.234-15.234 15.234z"></path>
</symbol>
</defs>
</svg>
